<svg xmlns="http://www.w3.org/2000/svg" viewBox="0 0 628.4 123.08"><defs><style>.cls-1{fill:#140f1b;}.cls-2{fill:none;stroke:#140f1b;stroke-miterlimit:10;}</style></defs><g id="Layer_2" data-name="Layer 2"><g id="Layer_1-2" data-name="Layer 1"><path class="cls-1" d="M250.64,73.57a43.12,43.12,0,1,0-64.12-3.45l-30.92,31,6.81,6.73,30.92-30.95A43.12,43.12,0,0,0,250.64,73.57ZM191.33,14.43a40.57,40.57,0,1,1,.08,57.37A40.56,40.56,0,0,1,191.33,14.43Z"/><rect class="cls-1" x="151.79" y="105.78" width="2.4" height="9.5" transform="translate(-33.3 140.86) rotate(-45.1)"/><rect class="cls-1" x="155.18" y="102.3" width="2.4" height="9.5" transform="translate(-29.84 142.24) rotate(-45.1)"/><path class="cls-1" d="M142,115a4.75,4.75,0,0,0,0,6.72h0a4.75,4.75,0,0,0,6.72,0l5.2-5.22-6.81-6.74Z"/><circle class="cls-2" cx="217.38" cy="46.32" r="24.4"/><line class="cls-2" x1="234.71" y1="29.17" x2="199.95" y2="63.56"/><path class="cls-1" d="M241.13,22.82a12.19,12.19,0,0,0-17.19-.13L241,40A12.09,12.09,0,0,0,241.13,22.82Z"/><circle class="cls-1" cx="219.43" cy="32.86" r="3.1"/><circle class="cls-1" cx="230.76" cy="44.44" r="3.1" transform="translate(161.96 269.14) rotate(-83.88)"/><circle class="cls-1" cx="220.26" cy="59.8" r="5.3" transform="translate(137.3 272.43) rotate(-83.88)"/><circle class="cls-1" cx="203.86" cy="43.06" r="5.3" transform="translate(139.3 241.16) rotate(-83.88)"/><path class="cls-1" d="M47.3,72.38c-4.1-.2-11.1-.3-20.9-.3q-17.55,0-26.4.3v-1.9a20.53,20.53,0,0,0,4.8-.7,3.22,3.22,0,0,0,2-2.1,15.51,15.51,0,0,0,.5-5V17.48a19.06,19.06,0,0,0-.5-5,3.46,3.46,0,0,0-2-2.1A16.26,16.26,0,0,0,0,9.68V7.88q9,.3,26.4.3c8.9,0,15.3-.1,19-.3q-.6,6-.6,10.8a39.74,39.74,0,0,0,.3,5.6H43a46.94,46.94,0,0,0-1.6-8.8,7.57,7.57,0,0,0-3.4-4.2c-1.6-.9-4-1.3-7.2-1.3H23.2a17.85,17.85,0,0,0-4.8.5,2.88,2.88,0,0,0-2,2,15.51,15.51,0,0,0-.5,5V39h6a7.18,7.18,0,0,0,4.9-1.5,7,7,0,0,0,2.3-3.6,41.91,41.91,0,0,0,1-5.1l.3-1.8h2.1c-.2,2.6-.3,5.4-.3,8.6V40c0,3.1.2,7.4.5,12.9H30.6c-.1-.4-.2-1.9-.5-4.4a8.9,8.9,0,0,0-2.5-5.7,8,8,0,0,0-5.7-1.9h-6v21.9a19.06,19.06,0,0,0,.5,5,3.07,3.07,0,0,0,2,2,17.85,17.85,0,0,0,4.8.5h6.7c3.8,0,6.6-.5,8.6-1.5A8.85,8.85,0,0,0,42.8,64a36,36,0,0,0,2-9.8h2.1a56.23,56.23,0,0,0-.3,6.6C46.7,64.18,46.9,68,47.3,72.38Z"/><path class="cls-1" d="M110.9,18.78a10.61,10.61,0,0,0-4.7,1,4.27,4.27,0,0,0-2.1,2.6,17.75,17.75,0,0,0-.5,5.2v45.3h-2.1L65.1,22.38v39.4a17.45,17.45,0,0,0,.6,5.3,4.07,4.07,0,0,0,2.3,2.5,18.49,18.49,0,0,0,5.4,1v1.8q-3.3-.3-9.3-.3c-3.6,0-6.5.1-8.5.3v-1.9a10.61,10.61,0,0,0,4.7-1,4.27,4.27,0,0,0,2.1-2.6,17.75,17.75,0,0,0,.5-5.2V26.48a19.06,19.06,0,0,0-.5-5,3.46,3.46,0,0,0-2-2.1,16.26,16.26,0,0,0-4.8-.7v-1.8c2,.2,4.8.3,8.5.3q5,0,8.4-.3l29.1,40.4V27.48a17.45,17.45,0,0,0-.6-5.3,4.07,4.07,0,0,0-2.3-2.5,18.49,18.49,0,0,0-5.4-1v-1.8q3.3.3,9.3.3c3.6,0,6.5-.1,8.5-.3v1.9Z"/><path class="cls-1" d="M167.8,27.68a73.39,73.39,0,0,0,.3,7.5H166a41.89,41.89,0,0,0-1.7-9.7,9.11,9.11,0,0,0-3.8-4.9,15.74,15.74,0,0,0-7.6-1.5h-5.8v42.7a15.49,15.49,0,0,0,.7,5.6,4.14,4.14,0,0,0,2.6,2.4,23,23,0,0,0,5.9.8v1.8c-3.2-.2-7.6-.3-13.4-.3q-9.15,0-13.5.3v-1.9a23,23,0,0,0,5.9-.8,4.13,4.13,0,0,0,2.6-2.4,15.49,15.49,0,0,0,.7-5.6V19h-5.8a15.74,15.74,0,0,0-7.6,1.5,8.36,8.36,0,0,0-3.8,4.9,38,38,0,0,0-1.7,9.7h-2.1a74.76,74.76,0,0,0,.3-7.5c0-3.2-.2-6.7-.6-10.7,5,.2,13.6.3,25.7.3s20.6-.1,25.6-.3A74.25,74.25,0,0,0,167.8,27.68Z"/><path class="cls-1" d="M334.3,19.48a3.22,3.22,0,0,0-2,2.1,15.51,15.51,0,0,0-.5,5v36.1a19.06,19.06,0,0,0,.5,5,3.46,3.46,0,0,0,2,2.1,16.26,16.26,0,0,0,4.8.7v1.8c-2.8-.2-6.7-.3-11.6-.3q-7.8,0-11.7.3v-1.8a20.53,20.53,0,0,0,4.8-.7,3,3,0,0,0,2-2.1,15.51,15.51,0,0,0,.5-5v-40l-22,50.1h-1.5l-21.1-50v39a17.45,17.45,0,0,0,.6,5.3,4.07,4.07,0,0,0,2.3,2.5,18.49,18.49,0,0,0,5.4,1v1.8q-3.3-.3-9.3-.3c-3.6,0-6.5.1-8.5.3v-1.9a10.61,10.61,0,0,0,4.7-1,4.27,4.27,0,0,0,2.1-2.6,17.75,17.75,0,0,0,.5-5.2V26.48a19.06,19.06,0,0,0-.5-5,3.46,3.46,0,0,0-2-2.1,16.26,16.26,0,0,0-4.8-.7v-1.8c2,.2,4.8.3,8.5.3,2.9,0,5.5-.1,7.7-.3l18.3,44.4L323,17.18h4.3c4.9,0,8.8-.1,11.6-.3v1.8A28.24,28.24,0,0,0,334.3,19.48Z"/><path class="cls-1" d="M389.7,19a23.5,23.5,0,0,1,9.8,9.7,32.14,32.14,0,0,1,3.5,15.4,31.85,31.85,0,0,1-3.6,15.4,25.69,25.69,0,0,1-10,10.4,28.2,28.2,0,0,1-14.5,3.7,31.24,31.24,0,0,1-14.7-3.3,23.5,23.5,0,0,1-9.8-9.7,32,32,0,0,1-3.5-15.3,31.85,31.85,0,0,1,3.6-15.4,25.69,25.69,0,0,1,10-10.4,28.2,28.2,0,0,1,14.5-3.7A30.06,30.06,0,0,1,389.7,19Zm-24.8,1.8a22.17,22.17,0,0,0-6.5,9.7,42,42,0,0,0-2.3,14.3,35.44,35.44,0,0,0,2.6,14.3,22.35,22.35,0,0,0,6.9,9.5,15.8,15.8,0,0,0,9.7,3.3,15.08,15.08,0,0,0,9.8-3.5,22.17,22.17,0,0,0,6.5-9.7,42,42,0,0,0,2.3-14.3,37.23,37.23,0,0,0-2.6-14.3,22.35,22.35,0,0,0-6.9-9.5,15.8,15.8,0,0,0-9.7-3.3A15.08,15.08,0,0,0,364.9,20.78Z"/><path class="cls-1" d="M464.6,68.48a14.32,14.32,0,0,1-4,3.8,10.17,10.17,0,0,1-5.3,1.3c-5.1,0-8.2-2.3-9.4-6.9l-2.8-11.4c-.9-3.4-2.1-5.7-3.8-6.8s-4.1-1.7-7.4-1.7h-5.2v15.9a19.06,19.06,0,0,0,.5,5,3.46,3.46,0,0,0,2,2.1,16.26,16.26,0,0,0,4.8.7v1.8c-2.8-.2-6.7-.3-11.6-.3q-7.8,0-11.7.3v-1.8a20.53,20.53,0,0,0,4.8-.7,3.22,3.22,0,0,0,2-2.1,15.51,15.51,0,0,0,.5-5V26.58a19.06,19.06,0,0,0-.5-5,3.46,3.46,0,0,0-2-2.1,16.26,16.26,0,0,0-4.8-.7V17q3.9.3,11.1.3l9.3-.1c1-.1,2.2-.1,3.6-.1,6.8,0,12,1.3,15.6,3.8s5.4,5.9,5.4,9.9a14,14,0,0,1-4.2,9.7c-2.8,2.9-7.5,4.8-13.9,5.6a23.59,23.59,0,0,1,3.1.4,17.48,17.48,0,0,1,7.7,2.9c1.9,1.5,3.2,3.8,4,7l2,8.3a15,15,0,0,0,1.6,4.5,2.51,2.51,0,0,0,2.2,1.3c1.5,0,3.2-1,5-3.1Zm-35.8-49.1a3.47,3.47,0,0,0-1.7,2.3,19.28,19.28,0,0,0-.5,4.9v18.3h6.1c5.3,0,9-1.1,11-3.4s3-5.5,3-9.7c0-4.4-1.1-7.6-3.3-9.8s-5.8-3.2-10.9-3.2A8.87,8.87,0,0,0,428.8,19.38Z"/><path class="cls-1" d="M490.9,18.78a20.53,20.53,0,0,0-4.8.7,3.22,3.22,0,0,0-2,2.1,15.51,15.51,0,0,0-.5,5v36.1a19.06,19.06,0,0,0,.5,5,3.46,3.46,0,0,0,2,2.1,16.26,16.26,0,0,0,4.8.7v1.8c-2.8-.2-6.7-.3-11.6-.3q-7.8,0-11.7.3v-1.8a20.53,20.53,0,0,0,4.8-.7,3.22,3.22,0,0,0,2-2.1,15.51,15.51,0,0,0,.5-5V26.58a19.06,19.06,0,0,0-.5-5,3.46,3.46,0,0,0-2-2.1,16.26,16.26,0,0,0-4.8-.7V17c2.6.2,6.4.3,11.7.3,4.9,0,8.7-.1,11.6-.3Z"/><path class="cls-1" d="M552.4,18.78a10.61,10.61,0,0,0-4.7,1,4.27,4.27,0,0,0-2.1,2.6,17.75,17.75,0,0,0-.5,5.2v20.1a54.1,54.1,0,0,1-.9,10.7,22.83,22.83,0,0,1-2.9,7.7,16.15,16.15,0,0,1-6.3,5.5,20.59,20.59,0,0,1-9.4,2c-6.3,0-11.1-1.3-14.4-4a17.58,17.58,0,0,1-5.4-8.1c-.9-3-1.4-7.6-1.4-13.6V26.58a19.06,19.06,0,0,0-.5-5,3.46,3.46,0,0,0-2-2.1,16.26,16.26,0,0,0-4.8-.7V17c2.6.2,6.4.3,11.7.3,4.9,0,8.7-.1,11.6-.3v1.8a20.53,20.53,0,0,0-4.8.7,3.22,3.22,0,0,0-2,2.1,15.51,15.51,0,0,0-.5,5v22.9a58.18,58.18,0,0,0,.9,11.2,12.77,12.77,0,0,0,3.9,7.1q3,2.7,8.7,2.7c6.1,0,10.4-1.9,12.8-5.7s3.7-9.2,3.7-16V27.48c0-3.3-.6-5.5-1.8-6.7s-3.4-1.9-6.5-2V17q3.3.3,9.3.3c3.6,0,6.5-.1,8.5-.3v1.8Z"/><path class="cls-1" d="M623.6,19.48a3.22,3.22,0,0,0-2,2.1,15.51,15.51,0,0,0-.5,5v36.1a19.06,19.06,0,0,0,.5,5,3.46,3.46,0,0,0,2,2.1,16.26,16.26,0,0,0,4.8.7v1.8c-2.8-.2-6.7-.3-11.6-.3q-7.8,0-11.7.3v-1.8a20.53,20.53,0,0,0,4.8-.7,3.22,3.22,0,0,0,2-2.1,15.51,15.51,0,0,0,.5-5v-40l-22,50.1h-1.5l-21.1-50v39a17.45,17.45,0,0,0,.6,5.3,4.07,4.07,0,0,0,2.3,2.5,18.49,18.49,0,0,0,5.4,1v1.8q-3.3-.3-9.3-.3c-3.6,0-6.5.1-8.5.3v-1.9a10.61,10.61,0,0,0,4.7-1,4.27,4.27,0,0,0,2.1-2.6,17.75,17.75,0,0,0,.5-5.2V26.48a19.06,19.06,0,0,0-.5-5,3.46,3.46,0,0,0-2-2.1,16.26,16.26,0,0,0-4.8-.7v-1.8c2,.2,4.8.3,8.5.3,2.9,0,5.5-.1,7.7-.3l18.3,44.4,19.5-44.1h4.3c4.9,0,8.8-.1,11.6-.3v1.8A26.33,26.33,0,0,0,623.6,19.48Z"/></g></g></svg>