<svg xmlns="http://www.w3.org/2000/svg" viewBox="0 0 122.64 123.08"><defs><style>.cls-1{fill:#140f1b;}.cls-2{fill:none;stroke:#140f1b;stroke-miterlimit:10;}</style></defs><g id="Layer_2" data-name="Layer 2"><g id="Layer_1-2" data-name="Layer 1"><path class="cls-1" d="M110.06,73.57a43.12,43.12,0,1,0-64.13-3.45L15,101.08l6.81,6.73L52.74,76.86A43.13,43.13,0,0,0,110.06,73.57ZM50.75,14.43a40.56,40.56,0,1,1,.07,57.37A40.56,40.56,0,0,1,50.75,14.43Z"/><rect class="cls-1" x="11.2" y="105.78" width="2.4" height="9.5" transform="translate(-74.64 41.29) rotate(-45.1)"/><rect class="cls-1" x="14.59" y="102.3" width="2.4" height="9.5" transform="translate(-71.18 42.67) rotate(-45.1)"/><path class="cls-1" d="M1.4,115a4.74,4.74,0,0,0,0,6.72h0a4.75,4.75,0,0,0,6.72,0l5.21-5.22L6.5,109.73Z"/><circle class="cls-2" cx="76.8" cy="46.32" r="24.4"/><line class="cls-2" x1="94.13" y1="29.17" x2="59.36" y2="63.56"/><path class="cls-1" d="M100.54,22.82a12.17,12.17,0,0,0-17.18-.13l17,17.31A12.09,12.09,0,0,0,100.54,22.82Z"/><circle class="cls-1" cx="78.84" cy="32.86" r="3.1"/><circle class="cls-1" cx="90.17" cy="44.44" r="3.1" transform="translate(36.37 129.36) rotate(-83.88)"/><circle class="cls-1" cx="79.67" cy="59.8" r="5.3" transform="translate(11.71 132.64) rotate(-83.88)"/><circle class="cls-1" cx="63.27" cy="43.06" r="5.3" transform="translate(13.71 101.37) rotate(-83.88)"/></g></g></svg>